<?xml version="1.0" encoding="UTF-8"?>
<!DOCTYPE svg PUBLIC "-//W3C//DTD SVG 1.1//EN" "http://www.w3.org/Graphics/SVG/1.1/DTD/svg11.dtd">
<svg xmlns="http://www.w3.org/2000/svg" version="1.1" width="295px" height="95px" style="shape-rendering:geometricPrecision; text-rendering:geometricPrecision; image-rendering:optimizeQuality; fill-rule:evenodd; clip-rule:evenodd" xmlns:xlink="http://www.w3.org/1999/xlink">
<g><path style="opacity:0.953" fill="#3d6bb8" d="M 88.5,-0.5 C 90.1667,-0.5 91.8333,-0.5 93.5,-0.5C 94.6935,0.271873 95.6935,1.27187 96.5,2.5C 96.9867,3.47344 97.4867,4.47344 98,5.5C 98.597,14.1921 99.4303,22.8587 100.5,31.5C 101.855,30.8118 102.855,29.8118 103.5,28.5C 106.532,28.505 109.532,28.8384 112.5,29.5C 116.248,28.2665 119.914,26.7665 123.5,25C 131.271,22.8419 138.938,23.1752 146.5,26C 148.747,27.2775 150.747,28.7775 152.5,30.5C 154.463,33.518 154.963,36.8513 154,40.5C 151.923,42.0758 150.423,44.0758 149.5,46.5C 151.473,49.6397 153.64,52.6397 156,55.5C 155.846,63.3564 152.013,68.8564 144.5,72C 138.687,74.1354 132.687,75.3021 126.5,75.5C 127.032,81.9694 124.032,85.3027 117.5,85.5C 113.692,83.4271 110.026,81.0938 106.5,78.5C 105.878,77.3734 105.045,76.3734 104,75.5C 103.117,78.1024 101.617,80.2691 99.5,82C 92.1742,82.4997 84.8409,82.6663 77.5,82.5C 74.9228,81.3939 73.2561,79.3939 72.5,76.5C 73.6664,74.834 73.6664,73.1673 72.5,71.5C 65.1362,75.8032 57.4695,76.4699 49.5,73.5C 47.9382,73.2671 46.6049,72.6005 45.5,71.5C 44.8549,70.1882 43.8549,69.1882 42.5,68.5C 38.6203,72.4399 33.9536,74.7732 28.5,75.5C 26.629,75.1412 25.129,74.1412 24,72.5C 19.8032,61.5765 15.8032,50.5765 12,39.5C 10.6218,37.7866 8.95515,36.4533 7,35.5C 4.44954,29.7434 1.94954,24.0768 -0.5,18.5C -0.5,16.8333 -0.5,15.1667 -0.5,13.5C 0.977392,11.193 2.97739,9.35968 5.5,8C 17.3769,3.02367 29.7103,1.02367 42.5,2C 46.6065,2.62917 49.9399,4.46251 52.5,7.5C 56.7297,11.9286 58.563,17.2619 58,23.5C 59.3024,22.9152 60.469,22.2485 61.5,21.5C 62.8333,21.5 64.1667,21.5 65.5,21.5C 65.64,16.6233 66.9734,12.1233 69.5,8C 75.9234,5.1167 82.2567,2.28336 88.5,-0.5 Z"/></g>
<g><path style="opacity:0.96" fill="#3c6bb9" d="M 276.5,-0.5 C 279.5,-0.5 282.5,-0.5 285.5,-0.5C 286.694,0.271873 287.694,1.27187 288.5,2.5C 290.053,9.41617 290.553,16.4162 290,23.5C 289.167,25.6667 287.667,27.1667 285.5,28C 282.522,28.696 279.522,29.196 276.5,29.5C 276.084,34.4932 275.751,39.4932 275.5,44.5C 277.099,44.7678 278.432,44.4345 279.5,43.5C 281.857,43.3367 284.19,43.5034 286.5,44C 287.942,44.3768 288.942,45.2101 289.5,46.5C 290.63,53.7535 290.796,61.0869 290,68.5C 289.626,69.4162 289.126,70.2496 288.5,71C 280.432,72.1372 272.265,72.6372 264,72.5C 256.121,72.4848 248.287,72.1515 240.5,71.5C 237.833,73.1667 235.167,74.8333 232.5,76.5C 235.692,81.6581 235.026,86.1581 230.5,90C 224.183,90.7652 217.849,91.2652 211.5,91.5C 209.983,91.4894 208.816,90.8228 208,89.5C 203.936,81.3754 200.436,73.0421 197.5,64.5C 197.205,62.5767 196.372,60.9101 195,59.5C 191.474,66.4142 188.14,73.4142 185,80.5C 184.167,81.3333 183.333,82.1667 182.5,83C 174.841,83.4997 167.174,83.6664 159.5,83.5C 156.147,82.4876 154.48,80.1542 154.5,76.5C 155.221,73.3948 156.221,70.3948 157.5,67.5C 158.167,67.5 158.5,67.1667 158.5,66.5C 158.5,66.1667 158.5,65.8333 158.5,65.5C 159.167,65.5 159.5,65.1667 159.5,64.5C 159.5,64.1667 159.5,63.8333 159.5,63.5C 169.892,43.7169 180.059,23.7169 190,3.5C 193.974,0.000657972 198.141,-0.332675 202.5,2.5C 203.217,4.93657 204.217,7.2699 205.5,9.5C 206.522,9.14451 207.189,8.47784 207.5,7.5C 214.735,5.35798 222.068,3.52465 229.5,2C 237.102,1.17347 244.602,1.67347 252,3.5C 260.382,2.63032 268.549,1.29699 276.5,-0.5 Z"/></g>
<g><path style="opacity:0.57" fill="#bbbdbf" d="M 96.5,2.5 C 98.371,2.85883 99.871,3.85883 101,5.5C 101.988,13.1731 102.822,20.8397 103.5,28.5C 102.855,29.8118 101.855,30.8118 100.5,31.5C 99.4303,22.8587 98.597,14.1921 98,5.5C 97.4867,4.47344 96.9867,3.47344 96.5,2.5 Z"/></g>
<g><path style="opacity:0.586" fill="#b9bbbf" d="M 288.5,2.5 C 290.888,3.21873 292.388,4.88539 293,7.5C 293.667,13.8333 293.667,20.1667 293,26.5C 290.143,30.1801 286.31,32.1801 281.5,32.5C 280.079,36.0275 279.412,39.6942 279.5,43.5C 278.432,44.4345 277.099,44.7678 275.5,44.5C 275.751,39.4932 276.084,34.4932 276.5,29.5C 279.522,29.196 282.522,28.696 285.5,28C 287.667,27.1667 289.167,25.6667 290,23.5C 290.553,16.4162 290.053,9.41617 288.5,2.5 Z"/></g>
<g><path style="opacity:0.488" fill="#b2b7bf" d="M 202.5,2.5 C 204.5,3.83333 206.167,5.5 207.5,7.5C 207.189,8.47784 206.522,9.14451 205.5,9.5C 204.217,7.2699 203.217,4.93657 202.5,2.5 Z"/></g>
<g><path style="opacity:1" fill="#fcca0b" d="M 88.5,6.5 C 89.8221,6.33003 90.9887,6.66337 92,7.5C 92.4277,18.866 93.261,30.1993 94.5,41.5C 97.9939,39.9205 101.327,38.0872 104.5,36C 108.801,36.3631 113.134,36.3631 117.5,36C 127.524,28.847 137.691,28.6803 148,35.5C 148.667,36.1667 148.667,36.8333 148,37.5C 143.645,42.3539 139.478,47.3539 135.5,52.5C 135.667,52.8333 135.833,53.1667 136,53.5C 137.74,51.0465 139.907,49.5465 142.5,49C 144.549,51.5934 146.715,54.0934 149,56.5C 149.667,57.8333 149.667,59.1667 149,60.5C 140.898,67.7368 131.398,70.4035 120.5,68.5C 120.82,71.8984 120.487,75.2317 119.5,78.5C 111.861,73.3608 104.361,68.0275 97,62.5C 96.5008,67.1548 96.3342,71.8215 96.5,76.5C 90.8333,76.5 85.1667,76.5 79.5,76.5C 79.9554,69.9861 79.4554,63.6527 78,57.5C 70.9613,68.6034 61.4613,71.4367 49.5,66C 43.395,58.4085 41.895,49.9085 45,40.5C 53.4332,27.5716 64.0998,25.2383 77,33.5C 77.4986,29.8484 77.6653,26.1817 77.5,22.5C 75.8333,22.5 74.1667,22.5 72.5,22.5C 72.5467,19.4318 73.0467,16.4318 74,13.5C 78.9702,11.2637 83.8035,8.93032 88.5,6.5 Z"/></g>
<g><path style="opacity:1" fill="#fcca0b" d="M 274.5,6.5 C 277.5,6.5 280.5,6.5 283.5,6.5C 283.5,11.8333 283.5,17.1667 283.5,22.5C 279.389,22.5224 275.389,23.189 271.5,24.5C 270.004,33.1092 269.004,41.7759 268.5,50.5C 273.833,50.5 279.167,50.5 284.5,50.5C 284.5,55.8333 284.5,61.1667 284.5,66.5C 271.167,66.5 257.833,66.5 244.5,66.5C 244.669,61.8189 245.002,57.1522 245.5,52.5C 248.5,52.5 251.5,52.5 254.5,52.5C 254.976,44.1737 255.309,35.8403 255.5,27.5C 253.473,27.3379 251.473,27.5045 249.5,28C 245.701,32.8006 241.534,37.3006 237,41.5C 237.34,48.3699 238.84,55.0365 241.5,61.5C 238.81,64.1846 235.81,66.5179 232.5,68.5C 231.914,68.2907 231.414,67.9574 231,67.5C 226.53,54.4239 221.864,41.4239 217,28.5C 215.667,31.1667 214.333,31.1667 213,28.5C 211.303,24.4095 209.803,20.2429 208.5,16C 221.493,8.40182 235.327,6.56849 250,10.5C 258.382,9.63032 266.549,8.29699 274.5,6.5 Z"/></g>
<g><path style="opacity:1" fill="#fbca0c" d="M 195.5,7.5 C 196.496,7.41423 197.329,7.74756 198,8.5C 207.89,33.2808 218.057,57.9475 228.5,82.5C 228.291,83.086 227.957,83.586 227.5,84C 223.294,84.2608 219.127,84.7608 215,85.5C 214.5,85.1667 214,84.8333 213.5,84.5C 208.262,73.3629 203.595,62.0295 199.5,50.5C 196.753,50.1866 194.086,50.52 191.5,51.5C 187.628,60.0758 183.628,68.5758 179.5,77C 173.509,77.4995 167.509,77.6662 161.5,77.5C 172.286,53.9283 183.619,30.595 195.5,7.5 Z"/></g>
<g><path style="opacity:1" fill="#fcca09" d="M 26.5,8.5 C 33.3914,7.90129 40.058,8.73462 46.5,11C 52.6092,15.908 53.1092,21.408 48,27.5C 44.034,32.4675 39.7007,37.1342 35,41.5C 36.4901,48.4623 37.8235,55.4623 39,62.5C 36.9261,64.4521 34.7594,66.2854 32.5,68C 31.365,68.7494 30.365,68.5827 29.5,67.5C 25.0201,54.723 20.3534,42.0563 15.5,29.5C 14.2638,30.2458 12.9305,30.5792 11.5,30.5C 10.4379,25.3137 8.77124,20.3137 6.5,15.5C 13.0919,12.7482 19.7586,10.4149 26.5,8.5 Z"/></g>
<g><path style="opacity:0.533" fill="#b9bbbf" d="M 52.5,7.5 C 57.985,10.4484 60.985,15.1151 61.5,21.5C 60.469,22.2485 59.3024,22.9152 58,23.5C 58.563,17.2619 56.7297,11.9286 52.5,7.5 Z"/></g>
<g><path style="opacity:1" fill="#496fb0" d="M 31.5,23.5 C 33.288,23.2148 34.9547,23.5481 36.5,24.5C 34.6667,26.8333 32.8333,29.1667 31,31.5C 29.045,28.5212 29.2116,25.8545 31.5,23.5 Z"/></g>
<g><path style="opacity:1" fill="#4a6faf" d="M 232.5,23.5 C 234.527,23.3379 236.527,23.5045 238.5,24C 237.042,26.46 235.209,28.6266 233,30.5C 230.601,27.9959 230.434,25.6626 232.5,23.5 Z"/></g>
<g><path style="opacity:1" fill="#4b70af" d="M 195.5,33.5 C 196.924,35.5145 197.59,37.8478 197.5,40.5C 196.127,40.6567 194.793,40.49 193.5,40C 194.669,37.9935 195.335,35.8268 195.5,33.5 Z"/></g>
<g><path style="opacity:1" fill="#436db3" d="M 61.5,38.5 C 62.3058,39.9972 62.9724,41.6639 63.5,43.5C 65.9257,44.1684 68.259,44.5018 70.5,44.5C 67.4757,50.2173 63.6423,50.8839 59,46.5C 58.0182,43.2253 58.8515,40.5586 61.5,38.5 Z"/></g>
<g><path style="opacity:0.662" fill="#babcbf" d="M 247.5,39.5 C 248.461,41.2646 248.795,43.2646 248.5,45.5C 246.856,45.2865 245.356,45.6198 244,46.5C 243.833,46 243.667,45.5 243.5,45C 244.65,43.019 245.984,41.1857 247.5,39.5 Z"/></g>
<g><path style="opacity:1" fill="#436db3" d="M 126.5,42.5 C 127.873,42.3433 129.207,42.51 130.5,43C 127.979,45.2198 125.812,47.7198 124,50.5C 123.018,47.2253 123.851,44.5586 126.5,42.5 Z"/></g>
<g><path style="opacity:0.553" fill="#b6b9bf" d="M 289.5,46.5 C 291.775,47.1112 293.441,48.4446 294.5,50.5C 294.5,56.8333 294.5,63.1667 294.5,69.5C 293.41,71.7611 291.744,73.5945 289.5,75C 273.459,75.6042 257.459,75.6042 241.5,75C 239.833,76.1667 238.167,77.3333 236.5,78.5C 239.643,83.6093 238.977,88.1093 234.5,92C 230.391,92.9443 226.391,93.7776 222.5,94.5C 219.833,94.5 217.167,94.5 214.5,94.5C 213.306,93.7281 212.306,92.7281 211.5,91.5C 217.849,91.2652 224.183,90.7652 230.5,90C 235.026,86.1581 235.692,81.6581 232.5,76.5C 235.167,74.8333 237.833,73.1667 240.5,71.5C 248.287,72.1515 256.121,72.4848 264,72.5C 272.265,72.6372 280.432,72.1372 288.5,71C 289.126,70.2496 289.626,69.4162 290,68.5C 290.796,61.0869 290.63,53.7535 289.5,46.5 Z"/></g>
<g><path style="opacity:1" fill="#436db4" d="M 111.5,49.5 C 110.833,51.8333 110.167,54.1667 109.5,56.5C 107.642,55.4045 105.975,54.0712 104.5,52.5C 106.53,50.393 108.697,48.393 111,46.5C 111.483,47.448 111.649,48.448 111.5,49.5 Z"/></g>
<g><path style="opacity:0.594" fill="#bbbdbf" d="M 152.5,30.5 C 157.492,32.483 159.325,36.1497 158,41.5C 156.267,43.7231 154.767,46.0565 153.5,48.5C 155.103,51.2796 156.937,53.9462 159,56.5C 159.497,58.8098 159.663,61.1432 159.5,63.5C 159.5,63.8333 159.5,64.1667 159.5,64.5C 158.833,64.5 158.5,64.8333 158.5,65.5C 158.5,65.8333 158.5,66.1667 158.5,66.5C 157.833,66.5 157.5,66.8333 157.5,67.5C 150.036,74.768 141.036,78.1014 130.5,77.5C 129.924,86.6134 125.591,89.28 117.5,85.5C 124.032,85.3027 127.032,81.9694 126.5,75.5C 132.687,75.3021 138.687,74.1354 144.5,72C 152.013,68.8564 155.846,63.3564 156,55.5C 153.64,52.6397 151.473,49.6397 149.5,46.5C 150.423,44.0758 151.923,42.0758 154,40.5C 154.963,36.8513 154.463,33.518 152.5,30.5 Z"/></g>
<g><path style="opacity:1" fill="#91936e" d="M 111.5,49.5 C 111.665,52.5184 111.498,55.5184 111,58.5C 110.283,57.9558 109.783,57.2891 109.5,56.5C 110.167,54.1667 110.833,51.8333 111.5,49.5 Z"/></g>
<g><path style="opacity:0.59" fill="#b6b9bf" d="M 197.5,64.5 C 194.244,71.5102 190.577,78.3436 186.5,85C 178.605,86.6011 170.605,86.9345 162.5,86C 161.058,85.6232 160.058,84.7899 159.5,83.5C 167.174,83.6664 174.841,83.4997 182.5,83C 183.333,82.1667 184.167,81.3333 185,80.5C 188.14,73.4142 191.474,66.4142 195,59.5C 196.372,60.9101 197.205,62.5767 197.5,64.5 Z"/></g>
<g><path style="opacity:0.596" fill="#bbbdbf" d="M 45.5,71.5 C 42.7139,73.1126 40.0472,74.946 37.5,77C 34.8333,77.6667 32.1667,77.6667 29.5,77C 28.944,76.6174 28.6107,76.1174 28.5,75.5C 33.9536,74.7732 38.6203,72.4399 42.5,68.5C 43.8549,69.1882 44.8549,70.1882 45.5,71.5 Z"/></g>
<g><path style="opacity:0.594" fill="#b9bbbf" d="M 72.5,76.5 C 66.8704,77.5207 61.2037,77.6873 55.5,77C 52.9746,76.5762 50.9746,75.4095 49.5,73.5C 57.4695,76.4699 65.1362,75.8032 72.5,71.5C 73.6664,73.1673 73.6664,74.834 72.5,76.5 Z"/></g>
<g><path style="opacity:0.565" fill="#b4b8bf" d="M 106.5,78.5 C 106.16,81.6748 104.493,83.8415 101.5,85C 94.5,85.6667 87.5,85.6667 80.5,85C 79.0577,84.6232 78.0577,83.7899 77.5,82.5C 84.8409,82.6663 92.1742,82.4997 99.5,82C 101.617,80.2691 103.117,78.1024 104,75.5C 105.045,76.3734 105.878,77.3734 106.5,78.5 Z"/></g>
</svg>
